<?xml version="1.0" encoding="UTF-8" standalone="no"?>
<svg
   xmlns:dc="http://purl.org/dc/elements/1.1/"
   xmlns:cc="http://creativecommons.org/ns#"
   xmlns:rdf="http://www.w3.org/1999/02/22-rdf-syntax-ns#"
   xmlns:svg="http://www.w3.org/2000/svg"
   xmlns="http://www.w3.org/2000/svg"
   xmlns:sodipodi="http://sodipodi.sourceforge.net/DTD/sodipodi-0.dtd"
   xmlns:inkscape="http://www.inkscape.org/namespaces/inkscape"
   width="400mm"
   height="560mm"
   viewBox="0 0 400 560"
   version="1.1"
   id="svg8"
   inkscape:version="1.0.1 (3bc2e813f5, 2020-09-07)"
   sodipodi:docname="title.svg">
  <defs
     id="defs2" />
  <sodipodi:namedview
     id="base"
     pagecolor="#ffffff"
     bordercolor="#666666"
     borderopacity="1.0"
     inkscape:pageopacity="0.0"
     inkscape:pageshadow="2"
     inkscape:zoom="0.35"
     inkscape:cx="400"
     inkscape:cy="560"
     inkscape:document-units="mm"
     inkscape:current-layer="layer1"
     inkscape:document-rotation="0"
     showgrid="false"
     inkscape:window-width="1566"
     inkscape:window-height="1033"
     inkscape:window-x="224"
     inkscape:window-y="38"
     inkscape:window-maximized="0" />
  <metadata
     id="metadata5">
    <rdf:RDF>
      <cc:Work
         rdf:about="">
        <dc:format>image/svg+xml</dc:format>
        <dc:type
           rdf:resource="http://purl.org/dc/dcmitype/StillImage" />
        <dc:title></dc:title>
      </cc:Work>
    </rdf:RDF>
  </metadata>
  <g
     inkscape:label="Layer 1"
     inkscape:groupmode="layer"
     id="layer1">
    <g
       data-v-423bf9ae=""
       id="e3d330bd-6beb-428c-ac22-655c0c7df6f9"
       transform="matrix(4.8822162,0,0,9.2943747,-49.018091,-211.73328)"
       stroke="none"
       fill="#ffd009">
      <path
         d="m 31.376,42.592 c -7.333,0 -11.834,2.75 -11.834,4.625 0,1.875 1.584,3.625 9.667,3.625 8.083,0 24.5,-10.25 41.25,-10.25 17.083,0.002 17.083,8.583 17.083,8.583 0,0 -2.254,-1.958 -13.583,-1.958 -16.917,0 -32.667,9.125 -43.874,9.125 -11.209,0 -14.108,-5.008 -14.108,-8.925 0,-3.375 4.399,-9.325 15.232,-9.325 10.833,0 12.667,6.583 12.667,6.583 0,0 -5.167,-2.083 -12.5,-2.083 z m -20.5,6.167 c 0,0 -2.167,14.75 21.916,14.75 24.084,0 33.251,-10.167 51.918,-10.167 5.654,0.12 6.666,2.792 6.666,2.792 0,0 2.25,-7.375 -13.084,-7.375 -15.332,0 -33.308,9.917 -47.832,9.917 -14.525,0 -19.584,-9.917 -19.584,-9.917 z"
         id="path836" />
    </g>
  </g>
</svg>
