<?xml version="1.0" encoding="utf-8"?>
<svg id="master-artboard" viewBox="0 0 1400 980" version="1.1" xmlns="http://www.w3.org/2000/svg" x="0px" y="0px" style="enable-background:new 0 0 1400 980;" width="1400px" height="980px" xmlns:xlink="http://www.w3.org/1999/xlink">

<path d="M 0 0 H 1400 V 980 H 0 V 0 Z" id="XMLID_1_" class="st0" style="fill: rgb(209, 211, 212);" transform="matrix(0.9999999999999999, 0, 0, 0.9999999999999999, -2.842170943040401e-14, 0)"/>
<g id="XMLID_2_" transform="matrix(0.9999999999999999, 0, 0, 0.9999999999999999, -2.842170943040401e-14, 0)">
		<defs>
			<path d="M 0 0 H 1400 V 980 H 0 V 0 Z" id="XMLID_18_"/>
		</defs>
		<clipPath id="XMLID_130_">
			<use style="overflow:visible;" xlink:href="#XMLID_18_"/>
		</clipPath>
		<g id="XMLID_3_" class="st1" style="clip-path: url('#XMLID_130_');">
			<path id="XMLID_12_" class="st2" d="M714,294.5H469.1c-4.8,0-8.7-3.9-8.7-8.7l0,0c0-4.8,3.9-8.7,8.7-8.7H714&#10;&#9;&#9;&#9;&#9;c4.8,0,8.7,3.9,8.7,8.7l0,0C722.7,290.5,718.8,294.5,714,294.5z" style="fill: rgb(190, 190, 191);"/>
			<path id="XMLID_10_" class="st2" d="M860.9,806.3H307.4c-4.8,0-8.7-3.9-8.7-8.7l0,0c0-4.8,3.9-8.7,8.7-8.7h553.5&#10;&#9;&#9;&#9;&#9;c4.8,0,8.7,3.9,8.7,8.7l0,0C869.7,802.4,865.7,806.3,860.9,806.3z" style="fill: rgb(190, 190, 191);"/>
			<path id="XMLID_4_" class="st2" d="M415.8,104.2h-553.5c-4.8,0-8.7-3.9-8.7-8.7l0,0c0-4.8,3.9-8.7,8.7-8.7h553.5&#10;&#9;&#9;&#9;&#9;c4.8,0,8.7,3.9,8.7,8.7l0,0C424.5,100.3,420.6,104.2,415.8,104.2z" style="fill: rgb(190, 190, 191);"/>
			<path id="XMLID_5_" class="st2" d="M1654.3,219.8h-553.5c-4.8,0-8.7-3.9-8.7-8.7l0,0c0-4.8,3.9-8.7,8.7-8.7h553.5&#10;&#9;&#9;&#9;&#9;c4.8,0,8.7,3.9,8.7,8.7l0,0C1663,215.8,1659.1,219.8,1654.3,219.8z" style="fill: rgb(190, 190, 191);"/>
			<path id="XMLID_11_" class="st2" d="M1055.7,104.2H733.2c-4.8,0-8.7-3.9-8.7-8.7l0,0c0-4.8,3.9-8.7,8.7-8.7h322.4&#10;&#9;&#9;&#9;&#9;c4.8,0,8.7,3.9,8.7,8.7l0,0C1064.4,100.3,1060.5,104.2,1055.7,104.2z" style="fill: rgb(190, 190, 191);"/>
			<path id="XMLID_6_" class="st2" d="M1112.6,372.8H913.7c-4.8,0-8.7-3.9-8.7-8.7l0,0c0-4.8,3.9-8.7,8.7-8.7h198.9&#10;&#9;&#9;&#9;&#9;c4.8,0,8.7,3.9,8.7,8.7l0,0C1121.3,368.8,1117.4,372.8,1112.6,372.8z" style="fill: rgb(190, 190, 191);"/>
			<path id="XMLID_7_" class="st2" d="M321.7,474.2h-553.5c-4.8,0-8.7-3.9-8.7-8.7l0,0c0-4.8,3.9-8.7,8.7-8.7h553.5&#10;&#9;&#9;&#9;&#9;c4.8,0,8.7,3.9,8.7,8.7l0,0C330.5,470.3,326.6,474.2,321.7,474.2z" style="fill: rgb(190, 190, 191);"/>
			<path id="XMLID_8_" class="st2" d="M1602.7,732.6h-553.5c-4.8,0-8.7-3.9-8.7-8.7l0,0c0-4.8,3.9-8.7,8.7-8.7h553.5&#10;&#9;&#9;&#9;&#9;c4.8,0,8.7,3.9,8.7,8.7l0,0C1611.4,728.6,1607.5,732.6,1602.7,732.6z" style="fill: rgb(190, 190, 191);"/>
			<path id="XMLID_13_" class="st2" d="M1246.4,552.7H692.9c-4.8,0-8.7-3.9-8.7-8.7l0,0c0-4.8,3.9-8.7,8.7-8.7h553.5&#10;&#9;&#9;&#9;&#9;c4.8,0,8.7,3.9,8.7,8.7l0,0C1255.1,548.7,1251.2,552.7,1246.4,552.7z" style="fill: rgb(190, 190, 191);"/>
			<path id="XMLID_9_" class="st2" d="M198.5,658.6H-355c-4.8,0-8.7-3.9-8.7-8.7l0,0c0-4.8,3.9-8.7,8.7-8.7h553.5&#10;&#9;&#9;&#9;&#9;c4.8,0,8.7,3.9,8.7,8.7l0,0C207.2,654.7,203.3,658.6,198.5,658.6z" style="fill: rgb(190, 190, 191);"/>
			<path id="XMLID_14_" class="st2" d="M294.1,918.8H64.7c-4.8,0-8.7-3.9-8.7-8.7l0,0c0-4.8,3.9-8.7,8.7-8.7h229.4&#10;&#9;&#9;&#9;&#9;c4.8,0,8.7,3.9,8.7,8.7l0,0C302.8,914.9,298.9,918.8,294.1,918.8z" style="fill: rgb(190, 190, 191);"/>
			<path id="XMLID_15_" class="st2" d="M1465,884.1h-229.4c-4.8,0-8.7-3.9-8.7-8.7l0,0c0-4.8,3.9-8.7,8.7-8.7H1465&#10;&#9;&#9;&#9;&#9;c4.8,0,8.7,3.9,8.7,8.7l0,0C1473.8,880.1,1469.8,884.1,1465,884.1z" style="fill: rgb(190, 190, 191);"/>
			<path id="XMLID_16_" class="st2" d="M1218.2,104.2h-76.8c-4.8,0-8.7-3.9-8.7-8.7l0,0c0-4.8,3.9-8.7,8.7-8.7h76.8&#10;&#9;&#9;&#9;&#9;c4.8,0,8.7,3.9,8.7,8.7l0,0C1226.9,100.3,1223,104.2,1218.2,104.2z" style="fill: rgb(190, 190, 191);"/>
			<path id="XMLID_17_" class="st2" d="M1782.7,372.8h-553.5c-4.8,0-8.7-3.9-8.7-8.7l0,0c0-4.8,3.9-8.7,8.7-8.7h553.5&#10;&#9;&#9;&#9;&#9;c4.8,0,8.7,3.9,8.7,8.7l0,0C1791.4,368.8,1787.5,372.8,1782.7,372.8z" style="fill: rgb(190, 190, 191);"/>
		</g>
	</g><path id="XMLID_148_" class="st3" d="M1079.9,143.9l-5.7-14.7l0,0l-1.4-3.5l-12.8,5l2.4,6.3l-1-2.7l0,0l-3.1-7.9l-39.9,15.6&#10;&#9;&#9;l0.3,0.7l2.7,6.9c-24.3,8.5-37.7,4-46.1-0.6c-14.4-7.9-25.3-23.6-37.9-41.8c-17.9-25.9-38.1-55.2-75.4-70.3&#10;&#9;&#9;c-33.5-13.6-65-13.2-93.5,1.4c-6.1,3.1-12.1,6.9-18,11.4c-17.6,1.9-34.6,6.5-50.2,13.7c-36.1,16.6-61.9,45-74.9,82.2&#10;&#9;&#9;c-12,34.5-10.9,71.3,2.8,104.8c-1.9,5.9-3.4,12.2-4.5,18.9c-6,38.2,5.5,80.2,34.3,124.9l-8.9,6.7l0,0v0l25.9,34.2l3.1-2.3&#10;&#9;&#9;l11.6,15.3l20.6-15.6l0,0l3.8-2.9l-11.5-15.2l2.2-1.7l-25.9-34.2l-9,6.8l0,0l-0.8,0.6c-26.5-41.4-37.1-79.9-31.7-114.4&#10;&#9;&#9;c0.1-0.6,0.2-1.3,0.3-1.9c17.6,30.1,44.9,52.8,78,64.6l0,0c0,0,0,0,0,0l0,0c0,0,0,0,0.1,0l1.4,0.5l0,0c0.9,0.3,1.8,0.6,2.7,0.8&#10;&#9;&#9;c29.5,31.6,64,48.9,99.4,49.4c23.8,0.3,44.8-6.5,62.3-20.5c14.6-11.7,26.9-28.3,36.3-49.5c18.5-41.6,21.7-89.7,22.2-108.5&#10;&#9;&#9;c1-39.2-8.4-71.7-27.9-96.6c-20.8-26.5-53.8-45.3-98.1-55.9c-11.8-2.8-23.7-4.5-35.5-5c23.9-10.9,50.2-10.6,78.4,0.9&#10;&#9;&#9;c33.5,13.6,52.5,41.2,69.3,65.4c23.7,34.2,46.1,66.6,100.3,47.4l2.5,6.3l39.9-15.6l-1.7-4.3L1079.9,143.9z M723.5,100.5&#10;&#9;&#9;c28.5-17,64.1-21.8,97.8-10.1l3.7,1.3c24.6,8.5,44.4,26.2,55.8,49.6c11.4,23.4,12.9,49.9,4.4,74.5c-8.5,24.6-26.2,44.4-49.6,55.8&#10;&#9;&#9;c-1,0.5-2,0.9-3,1.4c4.3-9.5,7.5-20.4,8.1-31.9c1.2-23.9-9.4-44.5-31.3-61.2c-12.1-9.2-24-16.2-35.6-21&#10;&#9;&#9;c-19.9-8.1-39.2-9.7-57.5-4.6c-6.1,1.7-12.2,4.1-18,7.3c0.2-1.1,0.5-2.2,0.8-3.3C704.5,135.3,713.4,116.1,723.5,100.5z&#10;&#9;&#9; M813.6,279.2c-17.4,3.8-35.5,2.8-52.7-3.2c-24.9-8.6-43.9-24.5-55-45.7c-8-15.3-11.5-32.6-10.4-50.9c31.1-22,66.4-18.2,105.3,11.5&#10;&#9;&#9;C839.1,220,827.7,256.1,813.6,279.2z M636,231.1c-7.5-26.4-6.8-54.4,2.4-80.9c11.7-33.6,35-59.3,67.6-74.2&#10;&#9;&#9;c8.2-3.8,16.8-6.7,25.7-8.9c-6.4,7-12.4,14.8-17.9,23.3c-24.2,15.2-43.5,38.4-53.6,67.4c-4.1,11.8-5.3,26.1-3.9,41.9&#10;&#9;&#9;C650.1,207.5,642.5,218,636,231.1z M673.1,162.2c5.2-15.1,13.3-28.4,23.4-39.6c-4.7,10.8-8.5,21.8-11,32.3&#10;&#9;&#9;c-1.4,5.8-2.4,11.5-3.1,17.1c-4.4,3.5-8.7,7.5-12.9,11.9C669.7,175.9,670.9,168.6,673.1,162.2z M644.4,253.1&#10;&#9;&#9;c-0.5-1.1-1-2.2-1.5-3.2c4.5-12.1,10.4-22.5,16.2-30.9c6.1,29.8,20.1,62.6,40.1,91.1c0.6,0.8,1.2,1.7,1.8,2.5&#10;&#9;&#9;C676.5,299.3,656.8,278.7,644.4,253.1z M710.5,302.2c-21.6-30.9-36-67.6-39.9-98.5c0.2-0.3,0.4-0.5,0.6-0.8&#10;&#9;&#9;c3.4-4.3,6.9-8.2,10.5-11.8c1.9,44.8,29.3,82,74.8,97.8c15,5.2,30.5,7.1,45.9,5.8c-22,25-52.3,33-75.2,28.3&#10;&#9;&#9;C720.4,315.7,714.9,308.4,710.5,302.2z M810.6,67.3c41.2,9.9,71.7,27.1,90.5,51c17.8,22.6,25.9,51.3,25,87.7&#10;&#9;&#9;c-0.5,18-3.4,64-21,103.3c-18.5,41.5-47.4,62.3-85.8,61.8c-31.2-0.4-57.2-15.4-76.9-32.8c31-0.8,60.4-19.8,77-42.9&#10;&#9;&#9;c0.9-1.3,1.9-2.7,2.9-4.2c6.5-1.8,12.9-4.2,19.2-7.2c26.8-13,46.9-35.6,56.6-63.7c9.8-28.1,8-58.3-5-85&#10;&#9;&#9;c-13-26.8-35.6-46.9-63.7-56.6l-3.7-1.3c-28.4-9.8-57.8-9.3-84.3-0.3c5-5.5,10.1-10.2,14.9-14.2C774,61.5,792.4,62.9,810.6,67.3z" style="opacity: 0.5; fill: rgb(190, 190, 191);" transform="matrix(0.9999999999999999, 0, 0, 0.9999999999999999, -2.842170943040401e-14, 0)"/><path id="XMLID_155_" class="st3" d="M572.2,272.2l10.4-5l-39.5-81.5l0,0l0-0.1l-15.5,7.5l0,0.1l-32.9,15.9l0-0.1l-15.5,7.5l0,0.1&#10;&#9;&#9;l0,0l39.5,81.5l10.4-5l12.7,26.2c0.6,1.3,1.7,2.3,3,2.8c1.4,0.6,3.1,0.6,4.6-0.1c2.8-1.4,4-4.7,2.6-7.6l-12.7-26.2l22.7-11&#10;&#9;&#9;l12.7,26.2c0.6,1.3,1.7,2.3,3,2.8c1.4,0.6,3.1,0.6,4.6-0.1c2.8-1.4,4-4.7,2.6-7.6L572.2,272.2z" style="opacity: 0.5; fill: rgb(190, 190, 191);" transform="matrix(0.9999999999999999, 0, 0, 0.9999999999999999, -2.842170943040401e-14, 0)"/><path id="XMLID_156_" class="st3" d="M435.5,202.8l-158.8-70.1c-2.2-1-4.4-1.4-6.7-1.4c-6.4-0.2-12.7,3.5-15.4,9.7L130.5,421.5&#10;&#9;&#9;c0,0.1-0.1,0.2-0.1,0.3l-4.1,9.1c-3.6,8.2,0.1,17.9,8.3,21.6l158.8,70.1c8.2,3.6,17.9-0.1,21.6-8.3l128.8-290&#10;&#9;&#9;C447.5,216.1,443.8,206.4,435.5,202.8z" style="opacity: 0.5; fill: rgb(190, 190, 191);" transform="matrix(0.9999999999999999, 0, 0, 0.9999999999999999, -2.842170943040401e-14, 0)"/><path id="XMLID_157_" class="st3" d="M341.8,607.1c-2.7-9.5-12.7-14.9-22.2-12.2L85.9,662.8c-9.5,2.7-14.9,12.7-12.2,22.2&#10;&#9;&#9;L109,806.6c2.7,9.5,12.7,14.9,22.2,12.2h0l233.7-67.9h0c9.5-2.7,14.9-12.7,12.2-22.2l-12-41.2l0,0L341.8,607.1z" style="opacity: 0.5; fill: rgb(190, 190, 191);" transform="matrix(0.9999999999999999, 0, 0, 0.9999999999999999, -2.842170943040401e-14, 0)"/><path id="XMLID_13866_" class="st4" d="M1032.8,155.4c-100.1,47.2-91.2-71.7-178.2-107.1C756.2,8.2,701,106.7,687.4,161.6&#10;&#9;&#9;&#9;c-13.8,56,12.1,107,66.6,125.9c54.5,18.9,114-9.9,132.9-64.4c18.9-54.5-9.9-114-64.4-132.9l-3.7-1.3&#10;&#9;&#9;&#9;c-64.3-22.3-134.6,11.7-156.9,76c-22.3,64.3,49.7,216.6,152.6,218c95.5,1.3,112.4-119.7,113.7-171.8&#10;&#9;&#9;&#9;c1.9-72.8-32.2-124.4-120.8-145.7C731.4,47.3,652.9,79,627.2,152.9c-25.7,73.9,13.5,154.6,87.4,180.3l-1.4-0.5&#10;&#9;&#9;&#9;c35.4,12.3,75-7.1,96-36.3c19.9-27.7,36-71.8-8.8-106c-70.1-53.6-115.8-16-139.2,13.3c-24.8,31-70.9,93.1,4.4,201.5" style="fill: none; stroke: rgb(51, 49, 50); stroke-width: 13.7827; stroke-linecap: round; stroke-miterlimit: 10;" transform="matrix(0.9999999999999999, 0, 0, 0.9999999999999999, -8.526512829121202e-14, 0)"/><path d="M 683.400024 421.700012 H 702.800024 V 447.500011 H 683.400024 V 421.700012 Z" id="XMLID_33_" transform="matrix(0.6037000417709351, 0.7971999645233153, -0.7971999645233153, 0.6037000417709351, 621.1019990012345, -380.3143977569698)" class="st2" style="fill: rgb(190, 190, 191);"/><path d="M 679.599976 424.600006 H 698.999975 V 450.400005 H 679.599976 V 424.600006 Z" id="XMLID_13865_" transform="matrix(0.6038000583648682, 0.7971999645233153, -0.7971999645233153, 0.6038000583648682, 621.9184052633999, -376.1763056542918)" class="st5" style="fill: rgb(241, 242, 242);"/><path id="XMLID_13864_" class="st2" d="M692.8,435.5l1.5,1.9l2.7-2.1l-1.4-1.9c-0.6-0.8-1.6-0.9-2.4-0.3&#10;&#9;&#9;&#9;&#9;C692.4,433.7,692.2,434.8,692.8,435.5z" style="fill: rgb(190, 190, 191);" transform="matrix(0.9999999999999999, 0, 0, 0.9999999999999999, -1.1368683772161603e-13, 0)"/><path id="XMLID_13863_" class="st2" d="M683.8,442.3l1.5,1.9l2.7-2.1l-1.4-1.9c-0.6-0.8-1.6-0.9-2.4-0.3&#10;&#9;&#9;&#9;&#9;C683.4,440.5,683.2,441.6,683.8,442.3z" style="fill: rgb(190, 190, 191);" transform="matrix(0.9999999999999999, 0, 0, 0.9999999999999999, -1.1368683772161603e-13, 0)"/><path d="M 650.700012 393.100006 H 693.600014 V 430.400005 H 650.700012 V 393.100006 Z" id="XMLID_13859_" transform="matrix(-0.6037000417709351, -0.7971999645233153, 0.7971999645233153, -0.6037000417709351, 749.69318744083, 1196.2589289584591)" class="st6" style="fill: rgb(51, 49, 50);"/><path d="M 646.200012 402.200012 H 689.100014 V 428.200012 H 646.200012 V 402.200012 Z" id="XMLID_35_" transform="matrix(-0.6037000417709351, -0.7971999645233153, 0.7971999645233153, -0.6037000417709351, 739.7332873900723, 1198.1413752755723)" class="st7" style="fill: rgb(57, 56, 57);"/><path d="M 1017.400024 138.300003 H 1060.300026 V 167.000004 H 1017.400024 V 138.300003 Z" id="XMLID_13856_" transform="matrix(-0.9316000342369078, 0.3634000122547149, -0.3634000122547149, -0.9316000342369078, 2062.073028774157, -82.64920167102218)" class="st7" style="fill: rgb(57, 56, 57);"/><path d="M 1013.700012 139 H 1056.600014 V 147.4 H 1013.700012 V 139 Z" id="XMLID_36_" transform="matrix(0.9316000342369078, -0.3634000122547149, 0.3634000122547149, 0.9316000342369078, 18.72920064224587, 385.9621944719878)" class="st6" style="fill: rgb(51, 49, 50);"/><path d="M 1058.300049 132.600006 H 1072.100049 V 152.100006 H 1058.300049 V 132.600006 Z" id="XMLID_13855_" transform="matrix(0.9316000342369078, -0.36349999904632563, 0.36349999904632563, 0.9316000342369078, 21.121900873212383, 396.94641704777496)" class="st5" style="fill: rgb(241, 242, 242);"/><path d="M 1061.199951 147.800003 H 1074.999951 V 151.600003 H 1061.199951 V 147.800003 Z" id="XMLID_13854_" transform="matrix(-0.9316000342369078, 0.3634000122547149, -0.3634000122547149, -0.9316000342369078, 2117.5110178814975, -98.97200159686803)" class="st2" style="fill: rgb(190, 190, 191);"/><path d="M 1055.5 133.100006 H 1069.3 V 136.900006 H 1055.5 V 133.100006 Z" id="XMLID_13852_" transform="matrix(-0.9316000342369078, 0.36349999904632563, -0.36349999904632563, -0.9316000342369078, 2101.0964668556517, -125.3639010990247)" class="st2" style="fill: rgb(190, 190, 191);"/><path id="XMLID_173_" class="st3" d="M1359,412.2c-10.7-17.3-27.2-32.9-48.1-45.5c-6.2-37.8-27.4-71.9-81.9-85.9&#10;&#9;&#9;c-32.3-8.3-64.5-5.7-92.4,7.1c-37.9-11.6-88.7-11-149.2,35.2l-13.1-14.5l-31.9,28.6l2.6,2.9l-14.3,12.8l30.8,34l0,0l3.2,3.5&#10;&#9;&#9;l14.2-12.8l1.9,2.1l31.9-28.6l-16-17.8c48.6-36.8,89.7-42.1,122.5-35.8c-28.6,19.1-49.6,49.6-59.4,86.5l0,0c0,0,0,0,0,0l-0.4,1.5&#10;&#9;&#9;l0,0c-4.2,17.8-1.4,35.6,5.6,51.4c-2.1,0.5-4.2,1-6.1,1.6c-28.2,8.5-42.7,27.3-41,52.9c1.7,24.1,9.6,46.9,23.1,66.1&#10;&#9;&#9;c12.8,18.3,30.3,32.9,50.6,42.4c43.1,20.1,92.9,14.6,133.4-14.8c28.7-20.8,48.4-52.6,59.9-75.6c12.6-25.3,20.8-50.7,23.2-64.7&#10;&#9;&#9;c3.3-18.9,5.8-40,4.8-60.7c13.5,9.4,25.8,21,34.6,35.1c14.7,23.7,17.3,51.2,7.7,81.7c-10.2,32.6-36.2,46.7-61.3,60.3&#10;&#9;&#9;c-22.4,12.1-43.5,23.6-50.4,47c-4.9,16.4-1.9,36.6,9.4,62.4l-8.7,4.2l23.1,48.2l4.1-2l6,12.4l21.6-10.4l0,0l3.4-1.7l-6.1-12.4l0,0&#10;&#9;&#9;l4.2-2l0,0l-4.8-10l-18.3-38.3v0v0l-12.2,5.9c-9.6-22.2-12.5-39.5-8.6-52.5c5.3-17.9,23.1-27.6,43.8-38.8&#10;&#9;&#9;c26.3-14.3,56-30.4,67.9-68.3C1378.9,470.8,1375.8,439.4,1359,412.2z M1225.5,294.2c33.7,8.6,55.2,25.8,65.7,52.4&#10;&#9;&#9;c1.4,3.6,2.7,7.5,3.7,11.5c-18.7-9-39.8-15.8-59.1-18.9c-5.9-0.9-11.6-1.5-17.3-1.7c-6.7-7.1-14.7-13.8-24-20l-0.4-0.3&#10;&#9;&#9;c-9.4-6.3-22.3-14.9-38.4-22.2C1177.3,288.3,1201,287.9,1225.5,294.2z M1162.8,501c17.2-0.6,32.3-7.1,44.9-19.5&#10;&#9;&#9;c6,4.9,10.6,10,13.5,15.3c8,14.1,4.1,28.2-12.1,42.9c-9.4,8.6-20.9,8.8-34.3,0.8c-13.5-8.1-27.2-23.7-37.7-42.8&#10;&#9;&#9;C1145.3,499.9,1153.9,501.3,1162.8,501z M1128.9,480.2c-4.4-11-7.3-21.6-8.5-31.4c10.8,1.3,21.9,3.5,33,6.7&#10;&#9;&#9;c16.5,4.7,31.2,10.8,42.8,17.9C1174.4,492.8,1148.6,488.6,1128.9,480.2z M1209.6,457.2c-1.3,2-2.6,4-4,5.8&#10;&#9;&#9;c-13.1-8.4-29.6-15.5-48.5-20.8c-12.4-3.5-25-5.9-37.2-7.3c0.2-3.7,0.7-7.1,1.6-10.3c6.5-25.5,20.7-45.8,41-58.6&#10;&#9;&#9;c14.6-9.3,31.6-14.2,49.9-14.6C1236.9,380.5,1236,416,1209.6,457.2z M1072.9,388.1c9.2-34.9,29.1-63.5,56.2-80.6&#10;&#9;&#9;c2.8-1.8,5.6-3.4,8.5-4.9c20.6,7.2,37,18.2,48.8,26.1l0.4,0.3c4.6,3.1,8.8,6.2,12.6,9.4c-44.5,5.6-79.3,36-91.3,82.6&#10;&#9;&#9;c-1,4-1.7,8.3-2,12.7c-9.5-0.4-18.7-0.1-27.3,0.8C1071.3,418.7,1069.5,401.9,1072.9,388.1z M1110.9,470.6&#10;&#9;&#9;c-10.1-6.6-18.1-14.4-24.3-22.9c6.3-0.4,12.9-0.5,19.7-0.2C1107.1,455.1,1108.7,462.9,1110.9,470.6z M1294.3,442.7&#10;&#9;&#9;c-3,17-26.1,94-77.6,131.4c-36.4,26.4-81,31.4-119.5,13.5c-38.2-17.8-62.7-54.1-65.7-97c-1.3-19.1,9.2-32.1,31.2-38.7&#10;&#9;&#9;c2.8-0.9,5.8-1.6,8.9-2.2c9.1,14.5,21.7,26.6,35.3,34.8c3.3,2,7.1,4.1,11.3,6.1c11.8,26.5,30.6,50.4,49.5,61.8&#10;&#9;&#9;c18.7,11.2,36.7,10.4,50.7-2.4c10.6-9.7,17.2-19.9,19.6-30.4c2.3-10,0.6-20-4.8-29.6c-3.8-6.6-9.3-13-16.5-18.9&#10;&#9;&#9;c1.5-2,3-4.2,4.4-6.4c22.2-34.7,28.2-66.6,17.8-95c-2.2-6-5.1-11.8-8.8-17.4c1.1,0.1,2.3,0.3,3.4,0.5c16.4,2.6,41,9.6,64.3,22.4&#10;&#9;&#9;C1300.1,394.1,1298.9,416.4,1294.3,442.7z M1292.7,710.9l-9,4.3L1292.7,710.9L1292.7,710.9z" style="opacity: 0.5; fill: rgb(190, 190, 191);" transform="matrix(0.9999999999999999, 0, 0, 0.9999999999999999, -2.842170943040401e-14, 0)"/><path id="XMLID_108_" class="st8" d="M1264.5,701.9c-74.5-136.5,63.8-96.9,91.9-186.5c31.8-101.4-70.9-148.3-126.8-157.2&#10;&#9;&#9;&#9;c-56.9-9.1-105.6,20.9-119.9,76.8c-14.3,55.9,56.5,160.9,99.1,122c92.6-84.7-196.3-156.3-189.2-53.7&#10;&#9;&#9;&#9;c6.6,95.3,113.1,148.9,196.1,88.6c51-37,76.3-112.5,80.3-135.8c13.4-77.1,1.9-136.9-73.9-156.3c-75.8-19.4-141.8,24-161.2,99.8&#10;&#9;&#9;&#9;l0.4-1.5c-9.3,36.3,13.3,74.2,44.2,92.7c29.3,17.5,74.6,29.9,104.9-17.6c47.6-74.4,6.3-116.8-24.8-137.6&#10;&#9;&#9;&#9;c-33-22.1-106.1-71.8-207.8,12.2" style="fill: none; stroke: rgb(255, 255, 255); stroke-width: 13.7827; stroke-linecap: round; stroke-miterlimit: 10;" transform="matrix(0.9999999999999999, 0, 0, 0.9999999999999999, -8.526512829121202e-14, 0)"/><path d="M 959.4000244140625 402.70001220703125 L 973.9000244140625 389.70001220703125 L 943.0999755859375 355.6000061035156 L 928.5999755859375 368.6000061035156 Z" id="XMLID_107_" class="st5" style="fill: rgb(241, 242, 242);" transform="matrix(0.9999999999999999, 0, 0, 0.9999999999999999, -8.526512829121202e-14, 0)"/><path d="M 956.2000122070312 399.20001220703125 L 970.7000122070312 386.20001220703125 L 939.9000244140625 352.1000061035156 L 925.5 365.1000061035156 Z" id="XMLID_106_" class="st5" style="fill: rgb(241, 242, 242);" transform="matrix(0.9999999999999999, 0, 0, 0.9999999999999999, -8.526512829121202e-14, 0)"/><path id="XMLID_105_" class="st2" d="M957.1,386.3l-1.8,1.6l2.3,2.6l1.8-1.6c0.7-0.6,0.8-1.7,0.1-2.4&#10;&#9;&#9;&#9;&#9;C958.8,385.7,957.8,385.7,957.1,386.3z" style="fill: rgb(190, 190, 191);" transform="matrix(0.9999999999999999, 0, 0, 0.9999999999999999, -1.1368683772161603e-13, 0)"/><path id="XMLID_104_" class="st2" d="M936,363.1l-1.8,1.6l2.3,2.6l1.8-1.6c0.7-0.6,0.8-1.7,0.1-2.4&#10;&#9;&#9;&#9;&#9;C937.8,362.5,936.7,362.5,936,363.1z" style="fill: rgb(190, 190, 191);" transform="matrix(0.9999999999999999, 0, 0, 0.9999999999999999, -1.1368683772161603e-13, 0)"/><path d="M 957.599976 345.200012 H 1000.499977 V 382.500011 H 957.599976 V 345.200012 Z" id="XMLID_102_" transform="matrix(0.7443000078201293, -0.6679000258445739, 0.6679000258445739, 0.7443000078201293, 7.368499865658521, 746.8640248010161)" class="st5" style="fill: rgb(241, 242, 242);"/><path d="M 969 320.79998779296875 L 937.0999755859375 349.3999938964844 L 966.2999877929688 381.79998779296875 L 997.7000122070312 352.6000061035156 Z" id="XMLID_101_" class="st9" style="fill: rgb(255, 255, 255);" transform="matrix(0.9999999999999999, 0, 0, 0.9999999999999999, -8.526512829121202e-14, 0)"/><path d="M 1272.0999755859375 671.2000122070312 L 1295.199951171875 719.5 L 1261.9000244140625 735.5 L 1238.800048828125 687.2999877929688 Z" id="XMLID_99_" class="st9" style="fill: rgb(255, 255, 255);" transform="matrix(0.9999999999999999, 0, 0, 0.9999999999999999, -1.1368683772161603e-13, 0)"/><path d="M 1295.199951171875 719.5 L 1272.0999755859375 671.2000122070312 L 1264.5 674.9000244140625 L 1287.5999755859375 723.2000122070312 Z" id="XMLID_98_" class="st5" style="fill: rgb(241, 242, 242);" transform="matrix(0.9999999999999999, 0, 0, 0.9999999999999999, -1.4210854715202004e-13, 0)"/><path d="M 1297.0999755859375 733.9000244140625 L 1291.0999755859375 721.5 L 1266 733.5 L 1272.0999755859375 745.9000244140625 Z" id="XMLID_96_" class="st5" style="fill: rgb(241, 242, 242);" transform="matrix(0.9999999999999999, 0, 0, 0.9999999999999999, -1.1368683772161603e-13, 0)"/><path d="M 1285.5 726.599976 H 1299.3 V 730.399976 H 1285.5 V 726.599976 Z" id="XMLID_94_" transform="matrix(-0.4397000074386596, -0.89819997549057, 0.89819997549057, -0.4397000074386596, 1206.3155697333148, 2209.6011071443713)" class="st5" style="fill: rgb(241, 242, 242);"/><g id="XMLID_13335_" transform="matrix(0.9999999999999999, 0, 0, 0.9999999999999999, -8.526512829121202e-14, 0)">
			<path d="M 539.5 258.399994 L 564.799988 310.700012" id="XMLID_13847_" class="st10" style="fill: none; stroke: rgb(255, 255, 255); stroke-width: 11.318; stroke-linecap: round; stroke-miterlimit: 10;"/>
			<path d="M 506.600006 274.299988 L 532 326.700012" id="XMLID_13846_" class="st10" style="fill: none; stroke: rgb(255, 255, 255); stroke-width: 11.318; stroke-linecap: round; stroke-miterlimit: 10;"/>
		</g><path d="M 470.700012 216.300003 H 561.200012 V 287.200005 H 470.700012 V 216.300003 Z" id="XMLID_13844_" transform="matrix(0.43610000610351557, 0.8998999595642089, -0.8998999595642089, 0.43610000610351557, 517.5369339814323, -322.3550157897921)" class="st7" style="fill: rgb(57, 56, 57);"/><path d="M 494.799988 231.399994 H 585.399986 V 248.599995 H 494.799988 V 231.399994 Z" id="XMLID_13841_" transform="matrix(-0.43610000610351557, -0.8998999595642089, 0.8998999595642089, -0.43610000610351557, 559.7028281644405, 830.7921876727368)" class="st6" style="fill: rgb(51, 49, 50);"/><path d="M 446.5 254.899994 H 537.099998 V 272.099995 H 446.5 V 254.899994 Z" id="XMLID_13840_" transform="matrix(-0.43610000610351557, -0.8998999595642089, 0.8998999595642089, -0.43610000610351557, 469.20380337840004, 820.9339111586495)" class="st7" style="fill: rgb(57, 56, 57);"/><g id="XMLID_13337_" transform="matrix(0.9999999999999999, 0, 0, 0.9999999999999999, -8.526512829121202e-14, 0)">
			<g id="XMLID_13338_">
				<g id="XMLID_13339_">
					<path id="XMLID_13836_" class="st6" d="M286.5,528.2c-3.6,8.2-13.4,12-21.6,8.3l-158.8-70.1c-8.2-3.6-12-13.4-8.3-21.6&#10;&#9;&#9;&#9;&#9;&#9;&#9;l128.8-290c3.6-8.2,13.3-12,21.6-8.3l158.8,70.1c8.2,3.6,12,13.4,8.3,21.6L286.5,528.2z" style="fill: rgb(51, 49, 50);"/>
					
						<path d="M 170.199997 192.699997 H 337.800003 V 472.199997 H 170.199997 V 192.699997 Z" id="XMLID_13835_" transform="matrix(0.9144 0.4047 -0.4047 0.9144 156.3065 -74.3463)" class="st11" style="fill: rgb(94, 95, 97);"/>
					
						<path d="M 285.799988 196.100006 H 341.399986 V 199.800006 H 285.799988 V 196.100006 Z" id="XMLID_13834_" transform="matrix(0.9144 0.4047 -0.4047 0.9144 106.9296 -109.9621)" class="st11" style="fill: rgb(94, 95, 97);"/>
				</g>
				<path d="M 377.6000061035156 260.29998779296875 L 134.8000030517578 394.70001220703125 L 120.80000305175781 426.3999938964844 L 274.1000061035156 494.20001220703125 Z" id="XMLID_13832_" class="st12" style="opacity: 0.51; fill: rgb(94, 95, 97);"/>
			</g>
			<path d="M 163.1999969482422 445.20001220703125 L 338.5 348.70001220703125 L 320.8999938964844 388.29998779296875 L 192.39999389648438 458.1000061035156 Z" id="XMLID_13830_" class="st11" style="fill: rgb(94, 95, 97);"/>
		</g><g id="XMLID_13341_" transform="matrix(0.9999999999999999, 0, 0, 0.9999999999999999, -1.1368683772161603e-13, 0)">
				<g id="XMLID_13342_">
					<path id="XMLID_13826_" class="st7" d="M280.1,514.3c-3.6,8.2-13.4,12-21.6,8.3L110.2,457c-8.2-3.6-12-13.4-8.3-21.6&#10;&#9;&#9;&#9;&#9;&#9;&#9;l124.2-280.6c3.6-8.2,13.4-12,21.6-8.3l148.2,65.6c8.2,3.6,12,13.4,8.3,21.6L280.1,514.3z" style="fill: rgb(57, 56, 57);"/>
					
						<path d="M 174.300003 183.300003 H 341.900009 V 462.800003 H 174.300003 V 183.300003 Z" id="XMLID_13825_" transform="matrix(0.9144 0.4047 -0.4047 0.9144 152.8548 -76.8326)" class="st13" style="fill: rgb(77, 77, 79);"/>
					<path d="M 329.70001220703125 201.89999389648438 L 349.8999938964844 210.89999389648438 L 249.1999969482422 256.6000061035156 Z" id="XMLID_32_" class="st14" style="fill: rgb(91, 91, 91);"/>
					<path id="XMLID_13822_" class="st6" d="M205,475.2c-2.9,6.6-10.6,9.5-17.2,6.6c-6.6-2.9-9.5-10.6-6.6-17.2&#10;&#9;&#9;&#9;&#9;&#9;&#9;c2.9-6.6,10.6-9.5,17.2-6.6C205,461,208,468.7,205,475.2z" style="fill: rgb(51, 49, 50);"/>
					
						<path d="M 289.899994 186.699997 H 345.499992 V 190.399997 H 289.899994 V 186.699997 Z" id="XMLID_13821_" transform="matrix(0.9144 0.4047 -0.4047 0.9144 103.4883 -112.4533)" class="st6" style="fill: rgb(51, 49, 50);"/>
				</g>
				<path d="M 163.10000610351562 330.79998779296875 L 131.3000030517578 402.6000061035156 L 367.70001220703125 282.70001220703125 L 391.3999938964844 229.1999969482422 L 366.5 218.1999969482422 Z" id="XMLID_13819_" class="st14" style="fill: rgb(91, 91, 91);"/>
			</g><path d="M 142.60000610351562 424.79998779296875 L 356 309.20001220703125 L 338.5 348.70001220703125 L 171.8000030517578 437.70001220703125 Z" id="XMLID_13816_" class="st14" style="fill: rgb(91, 91, 91);" transform="matrix(0.9999999999999999, 0, 0, 0.9999999999999999, -1.1368683772161603e-13, 0)"/><path id="XMLID_21_" class="st9" d="M99.1,828.9L65,711.3c-3.1-10.6,3.1-21.7,13.6-24.8l229.7-66.7c10.6-3.1,21.7,3.1,24.8,13.6&#10;&#9;&#9;&#9;L367.2,751c3.1,10.6-3.1,21.7-13.6,24.8l-229.7,66.7C113.4,845.6,102.2,839.4,99.1,828.9z" style="fill: rgb(255, 255, 255);" transform="matrix(0.9999999999999999, 0, 0, 0.9999999999999999, -8.526512829121202e-14, 0)"/><path d="M 188 736.5 H 251.5 V 751 H 188 V 736.5 Z" id="XMLID_29_" transform="matrix(0.9603000283241271, -0.27880001068115234, 0.27880001068115234, 0.9603000283241271, -198.65849600223447, 90.77210370856676)" class="st5" style="fill: rgb(241, 242, 242);"/><path id="XMLID_23_" class="st5" d="M367.8,753.1l-12-41.2c2.7,9.5-2.7,19.4-12.2,22.2l-233.7,67.9c-9.5,2.7-19.4-2.7-22.2-12.2&#10;&#9;&#9;&#9;&#9;l12,41.2c2.7,9.5,12.7,14.9,22.2,12.2l233.7-67.9C365.1,772.5,370.6,762.5,367.8,753.1z" style="fill: rgb(241, 242, 242);" transform="matrix(0.9999999999999999, 0, 0, 0.9999999999999999, -1.1368683772161603e-13, 0)"/><path id="XMLID_26_" class="st0" d="M170,801.3l-0.3,0.1c-1.2-1.9-3.5-2.9-5.8-2.2l-37.5,10.9c-2.7,0.8-4.3,3.7-3.5,6.4l2.6,8.9&#10;&#9;&#9;&#9;&#9;c0.8,2.7,3.7,4.3,6.4,3.5l37.5-10.9c2.3-0.7,3.7-2.7,3.7-5l0.3-0.1c2.7-0.8,4.3-3.7,3.5-6.4l-0.5-1.7&#10;&#9;&#9;&#9;&#9;C175.7,802.1,172.8,800.5,170,801.3z" style="fill: rgb(209, 211, 212);" transform="matrix(0.9999999999999999, 0, 0, 0.9999999999999999, -1.1368683772161603e-13, 0)"/><path id="XMLID_25_" class="st9" d="M133,824.8L133,824.8c-2.4,0.7-4.4,1-5-1.3l-1.9-6.6c-0.7-2.4,1.2-3.1,3.5-3.8l0,0&#10;&#9;&#9;&#9;&#9;c2.4-0.7,4.4-1,5,1.3l1.9,6.6C137.2,823.3,135.4,824.1,133,824.8z" style="fill: rgb(255, 255, 255);" transform="matrix(0.9999999999999999, 0, 0, 0.9999999999999999, -1.1368683772161603e-13, 0)"/><path id="XMLID_27_" class="st9" d="M144.1,821.5L144.1,821.5c-2.4,0.7-4.4,1-5-1.3l-1.9-6.6c-0.7-2.4,1.2-3.1,3.5-3.8l0,0&#10;&#9;&#9;&#9;&#9;c2.4-0.7,4.4-1,5,1.3l1.9,6.6C148.3,820.1,146.5,820.8,144.1,821.5z" style="fill: rgb(255, 255, 255);" transform="matrix(0.9999999999999999, 0, 0, 0.9999999999999999, -1.1368683772161603e-13, 0)"/><path id="XMLID_28_" class="st9" d="M155.2,818.3L155.2,818.3c-2.4,0.7-4.4,1-5-1.3l-1.9-6.6c-0.7-2.4,1.2-3.1,3.5-3.8l0,0&#10;&#9;&#9;&#9;&#9;c2.4-0.7,4.4-1,5,1.3l1.9,6.6C159.4,816.8,157.6,817.6,155.2,818.3z" style="fill: rgb(255, 255, 255);" transform="matrix(0.9999999999999999, 0, 0, 0.9999999999999999, -1.1368683772161603e-13, 0)"/><path id="XMLID_30_" class="st9" d="M166.3,815.1L166.3,815.1c-2.4,0.7-4.4,1-5-1.3l-1.9-6.6c-0.7-2.4,1.2-3.1,3.5-3.8l0,0&#10;&#9;&#9;&#9;&#9;c2.4-0.7,4.4-1,5,1.3l1.9,6.6C170.5,813.6,168.7,814.4,166.3,815.1z" style="fill: rgb(255, 255, 255);" transform="matrix(0.9999999999999999, 0, 0, 0.9999999999999999, -1.1368683772161603e-13, 0)"/><path d="M 340.7 761.400024 A 11.2 11.2 0 0 1 329.5 772.600024 A 11.2 11.2 0 0 1 318.3 761.400024 A 11.2 11.2 0 0 1 329.5 750.200025 A 11.2 11.2 0 0 1 340.7 761.400024 Z" id="XMLID_31_" class="st0" style="fill: rgb(209, 211, 212);" transform="matrix(0.9999999999999999, 0, 0, 0.9999999999999999, -8.526512829121202e-14, 0)"/><path d="M 335.3 761.400024 A 5.8 5.8 0 0 1 329.5 767.200025 A 5.8 5.8 0 0 1 323.7 761.400024 A 5.8 5.8 0 0 1 329.5 755.600024 A 5.8 5.8 0 0 1 335.3 761.400024 Z" id="XMLID_37_" class="st15" style="fill: none; stroke: rgb(255, 255, 255); stroke-width: 1.7896; stroke-miterlimit: 10;" transform="matrix(0.9999999999999999, 0, 0, 0.9999999999999999, -8.526512829121202e-14, 0)"/><path d="M 327.299988 753.900024 L 329.299988 760.799988" id="XMLID_38_" class="st16" style="fill: none; stroke: rgb(255, 255, 255); stroke-width: 1.7896; stroke-linecap: round; stroke-miterlimit: 10;" transform="matrix(0.9999999999999999, 0, 0, 0.9999999999999999, -8.526512829121202e-14, 0)"/><g id="XMLID_87_" class="st18" transform="matrix(0.9999999999999999, 0, 0, 0.9999999999999999, -8.526512829121202e-14, 0)" style="opacity: 0.7;">
			<g id="XMLID_89_">
				<path id="XMLID_90_" class="st3" d="M1015.2,561.9c17.7,4.4,29,20.4,25.1,35.7l-80.9,322.2c-3.8,15.3-21.3,24-39,19.6&#10;&#9;&#9;&#9;&#9;&#9;L445.7,820.3c-17.7-4.4-29-20.4-25.1-35.7l80.9-322.2c3.8-15.3,21.3-24,39-19.6L1015.2,561.9z" style="opacity: 0.5; fill: rgb(190, 190, 191);"/>
			</g>
		</g><g id="XMLID_69_" transform="matrix(0.9999999999999999, 0, 0, 0.9999999999999999, -8.526512829121202e-14, 0)">
			<g id="XMLID_70_" class="st18">
				<g id="XMLID_71_">
					<path id="XMLID_83_" class="st6" d="M995.1,574c17.7,4.4,29,20.4,25.1,35.7L939.4,932c-3.8,15.3-21.3,24-39,19.6L425.6,832.4&#10;&#9;&#9;&#9;&#9;&#9;&#9;c-17.7-4.4-29-20.4-25.1-35.7l80.9-322.2c3.8-15.3,21.3-24,39-19.6L995.1,574z" style="fill: rgb(51, 49, 50);"/>
				</g>
			</g>
		</g><g id="XMLID_80_" class="st18" transform="matrix(0.9999999999999999, 0, 0, 0.9999999999999999, -1.1368683772161603e-13, 0)">
				<g id="XMLID_81_">
					<path id="XMLID_82_" class="st7" d="M976.3,569.3c17.4,4.4,28.4,20.1,24.7,35.1l-76.3,303.9c-3.8,15-20.9,23.6-38.3,19.2&#10;&#9;&#9;&#9;&#9;&#9;&#9;L429.9,812.9c-17.4-4.4-28.4-20.1-24.7-35.1L481.5,474c3.8-15,20.9-23.6,38.3-19.2L976.3,569.3z" style="fill: rgb(57, 56, 57);"/>
				</g>
			</g><g id="XMLID_73_" class="st18" transform="matrix(0.9999999999999999, 0, 0, 0.9999999999999999, -1.1368683772161603e-13, 0)">
				<g id="XMLID_74_">
					<path id="XMLID_78_" class="st6" d="M470.3,626.3c-2.1-0.5-4.2,0.7-4.8,2.6c-0.5,2,0.8,4.1,2.9,4.6c2.1,0.5,4.3-0.7,4.8-2.7&#10;&#9;&#9;&#9;&#9;&#9;&#9;C473.7,628.9,472.4,626.8,470.3,626.3" style="fill: rgb(51, 49, 50);"/>
				</g>
			</g><path id="XMLID_75_" class="st6" d="M946,757.2c-4.2,5.4-12,6.3-17.4,2.1c-5.4-4.2-6.3-12-2.1-17.4c4.2-5.4,12-6.3,17.4-2.1&#10;&#9;&#9;&#9;C949.2,744.1,950.2,751.8,946,757.2z" style="fill: rgb(51, 49, 50);" transform="matrix(0.9999999999999999, 0, 0, 0.9999999999999999, -8.526512829121202e-14, 0)"/><path id="XMLID_84_" class="st13" d="M936.1,610.3L535.8,509.8c-3.1-0.8-6.2,0-8.4,1.7c-1.5,1.2-2.7,2.8-3.1,4.7l-61.4,244.5&#10;&#9;&#9;&#9;&#9;c-1.2,4.9,2,9.9,7.2,11.2l400.3,100.5c3.4,0.9,6.8-0.1,9.1-2.3c1.2-1.1,2-2.5,2.4-4.1l61.4-244.5&#10;&#9;&#9;&#9;&#9;C944.5,616.6,941.3,611.6,936.1,610.3z" style="fill: rgb(77, 77, 79);" transform="matrix(0.9999999999999999, 0, 0, 0.9999999999999999, -1.1368683772161603e-13, 0)"/><path d="M 727 557.7999877929688 L 611.2999877929688 650.2999877929688 L 762 566.5999755859375 Z" id="XMLID_76_" class="st14" style="fill: rgb(91, 91, 91);" transform="matrix(0.9999999999999999, 0, 0, 0.9999999999999999, -1.1368683772161603e-13, 0)"/><path d="M 483.8999938964844 775.4000244140625 L 557.5 793.9000244140625 L 868.0999755859375 593.2000122070312 L 794.0999755859375 574.5999755859375 Z" id="XMLID_77_" class="st14" style="fill: rgb(91, 91, 91);" transform="matrix(0.9999999999999999, 0, 0, 0.9999999999999999, -1.1368683772161603e-13, 0)"/><path id="XMLID_88_" class="st14" d="M600.9,804.8l73.6,18.5L934.9,655l8.4-33.6c1.2-4.9-2-9.9-7.2-11.2L911,604L600.9,804.8z" style="fill: rgb(91, 91, 91);" transform="matrix(0.9999999999999999, 0, 0, 0.9999999999999999, -1.1368683772161603e-13, 0)"/><path id="XMLID_114_" class="st3" d="M1223.5,800.5l-32.4-32.7c-8.9-9-23.5-9.1-32.5-0.1l-53,52.5l-8.8,8.7l-1,3.4l-9.6,9.5&#10;&#9;&#9;l5.9,21.7l-3.4,3.3l-13.8,13.7c0,0-3.1,3,0.2,6.4c2,2,4,1.7,5.2,1.1c0.7-0.4,1.2-0.8,1.2-0.8l13.8-13.7l3.2-3.2l21.7,21.9l-3.2,3.2&#10;&#9;&#9;l-13.8,13.7c0,0-3.1,3,0.2,6.4c2,2,4,1.7,5.2,1.1c0.7-0.4,1.2-0.8,1.2-0.8l13.8-13.7l3.2-3.2l1.2,1.3l20.4,4.5l15.1-15l-5.5,5.5&#10;&#9;&#9;l3.5-0.9l8.8-8.7l53-52.5C1232.4,824.1,1232.4,809.5,1223.5,800.5z M1118.9,894.8c0,0-0.1,0-0.1,0&#10;&#9;&#9;C1118.8,894.8,1118.9,894.8,1118.9,894.8z M1118.3,894.8C1118.2,894.8,1118.2,894.8,1118.3,894.8&#10;&#9;&#9;C1118.2,894.8,1118.2,894.8,1118.3,894.8z M1117.6,895c0,0-0.1,0-0.1,0.1C1117.6,895.1,1117.6,895.1,1117.6,895z M1119.6,894.8&#10;&#9;&#9;c0,0,0.1,0,0.1,0C1119.6,894.8,1119.6,894.8,1119.6,894.8z M1120.3,895c0.1,0,0.1,0,0.2,0.1C1120.4,895.1,1120.3,895,1120.3,895z&#10;&#9;&#9; M1121.1,895.4C1121.1,895.4,1121.2,895.4,1121.1,895.4C1121.2,895.4,1121.1,895.4,1121.1,895.4z M1121.8,895.8&#10;&#9;&#9;c0.1,0,0.1,0.1,0.2,0.1C1121.9,895.9,1121.8,895.9,1121.8,895.8z M1090.6,866.2c0,0-0.1,0-0.1,0&#10;&#9;&#9;C1090.6,866.2,1090.6,866.2,1090.6,866.2z M1090,866.3C1089.9,866.3,1089.9,866.3,1090,866.3C1089.9,866.3,1089.9,866.3,1090,866.3&#10;&#9;&#9;z M1089.3,866.5c0,0-0.1,0-0.1,0.1C1089.3,866.5,1089.3,866.5,1089.3,866.5z M1091.3,866.3c0,0,0.1,0,0.1,0&#10;&#9;&#9;C1091.4,866.3,1091.3,866.3,1091.3,866.3z M1092,866.5c0.1,0,0.1,0,0.2,0.1C1092.1,866.5,1092,866.5,1092,866.5z M1092.8,866.9&#10;&#9;&#9;C1092.9,866.9,1092.9,866.9,1092.8,866.9C1092.9,866.9,1092.9,866.9,1092.8,866.9z M1093.5,867.3c0.1,0,0.1,0.1,0.2,0.1&#10;&#9;&#9;C1093.6,867.4,1093.6,867.3,1093.5,867.3z M1122.9,831.6l18.1,18.3l0,0l18.1,18.3L1122.9,831.6z" style="opacity: 0.5; fill: rgb(190, 190, 191);" transform="matrix(0.9999999999999999, 0, 0, 0.9999999999999999, -2.842170943040401e-14, 0)"/><path d="M 1147.5 859.2999877929688 L 1147.5 859.2999877929688 L 1147.5 859.2999877929688 L 1147.5 859.2999877929688 L 1147.5 859.2999877929688 L 1114.199951171875 827.5999755859375 L 1101.4000244140625 840.2000122070312 L 1092.5999755859375 849 L 1091.5999755859375 852.4000244140625 L 1097.0999755859375 846.9000244140625 L 1118.5999755859375 851.5999755859375 L 1136.800048828125 869.9000244140625 L 1136.800048828125 869.9000244140625 L 1154.9000244140625 888.2000122070312 L 1159.4000244140625 909.7000122070312 L 1153.800048828125 915.2000122070312 L 1157.300048828125 914.2999877929688 L 1166.0999755859375 905.5 L 1178.9000244140625 892.9000244140625 Z" id="XMLID_68_" class="st5" style="fill: rgb(241, 242, 242);" transform="matrix(0.9999999999999999, 0, 0, 0.9999999999999999, -8.526512829121202e-14, 0)"/><path id="XMLID_67_" class="st9" d="M1141.8,864.9c23.7,23.9,25.3,32.8,25.3,32.8l-1,7.8l53-52.5c9-8.9,9.1-23.5,0.1-32.5&#10;&#9;&#9;&#9;&#9;l-32.4-32.7c-8.9-9-23.5-9.1-32.5-0.1l-53,52.5l7.9-0.9C1109.3,839.3,1118.1,841,1141.8,864.9z" style="fill: rgb(255, 255, 255);" transform="matrix(0.9999999999999999, 0, 0, 0.9999999999999999, -1.1368683772161603e-13, 0)"/><path id="XMLID_65_" class="st9" d="M1141.8,864.9c23.7,23.9,25.3,32.8,25.3,32.8l-1,7.8l53-52.5c9-8.9,9.1-23.5,0.1-32.5&#10;&#9;&#9;&#9;&#9;l-32.4-32.7c-8.9-9-23.5-9.1-32.5-0.1l-53,52.5l7.9-0.9C1109.3,839.3,1118.1,841,1141.8,864.9z" style="fill: rgb(255, 255, 255);" transform="matrix(0.9999999999999999, 0, 0, 0.9999999999999999, -1.1368683772161603e-13, 0)"/><path d="M 1097.0999755859375 846.9000244140625 L 1082 861.9000244140625 L 1103.9000244140625 866.7000122070312 L 1140.5 903.5999755859375 L 1144.199951171875 924.7000122070312 L 1159.4000244140625 909.7000122070312 L 1154.9000244140625 888.2000122070312 L 1118.5999755859375 851.5999755859375 Z" id="XMLID_63_" class="st9" style="fill: rgb(255, 255, 255);" transform="matrix(0.9999999999999999, 0, 0, 0.9999999999999999, -8.526512829121202e-14, 0)"/><path d="M 1082 861.9000244140625 L 1088 884.0999755859375 L 1123.800048828125 920.2000122070312 L 1144.199951171875 924.7000122070312 L 1140.5 903.5999755859375 L 1103.9000244140625 866.7000122070312 Z" id="XMLID_62_" class="st5" style="fill: rgb(241, 242, 242);" transform="matrix(0.9999999999999999, 0, 0, 0.9999999999999999, -8.526512829121202e-14, 0)"/><path id="XMLID_61_" class="st9" d="M1101.8,882.9c1.2-1.2,0.8-3.7-1-5.5c-1.8-1.8-4.3-2.3-5.5-1.1l0,0l-10.8,10.7l0,0&#10;&#9;&#9;&#9;c1.2-1.2,3.7-0.7,5.5,1.1c1.8,1.8,2.3,4.3,1,5.5l0,0L1101.8,882.9L1101.8,882.9z" style="fill: rgb(255, 255, 255);" transform="matrix(0.9999999999999999, 0, 0, 0.9999999999999999, -8.526512829121202e-14, 0)"/><path id="XMLID_60_" class="st5" d="M1091.1,893.6L1091.1,893.6c1.2-1.2,0.8-3.7-1-5.5c-1.2-1.3-2.8-1.9-4.1-1.7l-14.9,14.8&#10;&#9;&#9;&#9;&#9;c0,0-2.6,2.7,0.2,5.5c2.8,2.8,3.2,1.7,4.7,1.5c0.7-0.4,1.2-0.8,1.2-0.8L1091.1,893.6z" style="fill: rgb(241, 242, 242);" transform="matrix(0.9999999999999999, 0, 0, 0.9999999999999999, -1.1368683772161603e-13, 0)"/><path id="XMLID_91_" class="st5" d="M1071.3,906.6c-2.8-2.8-0.2-5.5-0.2-5.5l14.9-14.8c-0.6,0.1-1.1,0.3-1.5,0.7l0,0l-13.8,13.7&#10;&#9;&#9;&#9;&#9;c0,0-3.1,3,0.2,6.4c2,2,4,1.7,5.2,1.1" style="fill: rgb(241, 242, 242);" transform="matrix(0.9999999999999999, 0, 0, 0.9999999999999999, -1.1368683772161603e-13, 0)"/><path id="XMLID_57_" class="st9" d="M1130.1,911.4c1.2-1.2,0.8-3.7-1-5.5c-1.8-1.8-4.3-2.3-5.5-1.1l0,0l-10.8,10.7l0,0&#10;&#9;&#9;&#9;c1.2-1.2,3.7-0.7,5.5,1.1c1.8,1.8,2.3,4.3,1,5.5l0,0L1130.1,911.4L1130.1,911.4z" style="fill: rgb(255, 255, 255);" transform="matrix(0.9999999999999999, 0, 0, 0.9999999999999999, -8.526512829121202e-14, 0)"/><path id="XMLID_56_" class="st5" d="M1119.3,922.1L1119.3,922.1c1.2-1.2,0.8-3.7-1-5.5c-1.2-1.3-2.8-1.9-4.1-1.7l-14.9,14.8&#10;&#9;&#9;&#9;&#9;c0,0-2.6,2.7,0.2,5.5c2.8,2.8,6.6-0.5,4.7,1.5c0.7-0.4,1.2-0.8,1.2-0.8L1119.3,922.1z" style="fill: rgb(241, 242, 242);" transform="matrix(0.9999999999999999, 0, 0, 0.9999999999999999, -1.1368683772161603e-13, 0)"/><path id="XMLID_55_" class="st5" d="M1099.6,935.1c-2.8-2.8-0.2-5.5-0.2-5.5l14.9-14.8c-0.6,0.1-1.1,0.3-1.5,0.7l0,0l-13.8,13.7&#10;&#9;&#9;&#9;&#9;c0,0-3.1,3,0.2,6.4c2,2,4,1.7,5.2,1.1C1106.2,934.6,1102.4,937.9,1099.6,935.1z" style="fill: rgb(241, 242, 242);" transform="matrix(0.9999999999999999, 0, 0, 0.9999999999999999, -1.1368683772161603e-13, 0)"/><path d="M 1077.900024 902.099976 A 2 2.3 0 0 1 1075.900024 904.399976 A 2 2.3 0 0 1 1073.900024 902.099976 A 2 2.3 0 0 1 1075.900024 899.799976 A 2 2.3 0 0 1 1077.900024 902.099976 Z" id="XMLID_46_" transform="matrix(0.7038999795913695, 0.7102999687194823, -0.7102999687194823, 0.7038999795913695, 959.3582906627398, -497.09680916513196)" class="st9" style="fill: rgb(255, 255, 255);"/><path d="M 1106.099976 930.599976 A 2 2.3 0 0 1 1104.099976 932.899976 A 2 2.3 0 0 1 1102.099976 930.599976 A 2 2.3 0 0 1 1104.099976 928.299976 A 2 2.3 0 0 1 1106.099976 930.599976 Z" id="XMLID_45_" transform="matrix(0.7038999795913695, 0.7102999687194823, -0.7102999687194823, 0.7038999795913695, 987.9984888434183, -508.7311171998249)" class="st9" style="fill: rgb(255, 255, 255);"/><path d="M 1066.300048828125 462 L 1081.800048828125 459.70001220703125 L 1084.5 463.29998779296875 L 1071.9000244140625 469.8999938964844 Z" id="XMLID_59_" class="st5" style="fill: rgb(241, 242, 242);" transform="matrix(0.9999999999999999, 0, 0, 0.9999999999999999, -2.842170943040401e-14, 0)"/><path d="M 1202.5 493.79998779296875 L 1211.800048828125 483.20001220703125 L 1215.5999755859375 486.5 L 1209.4000244140625 500 Z" id="XMLID_100_" class="st5" style="fill: rgb(241, 242, 242);" transform="matrix(0.9999999999999999, 0, 0, 0.9999999999999999, -2.842170943040401e-14, 0)"/><path d="M 1113.0999755859375 502.70001220703125 L 1132.199951171875 510 L 1133.5999755859375 512.7000122070312 L 1117.800048828125 512.7000122070312 Z" id="XMLID_109_" class="st5" style="fill: rgb(241, 242, 242);" transform="matrix(0.9999999999999999, 0, 0, 0.9999999999999999, -2.842170943040401e-14, 0)"/><path d="M 1132.4000244140625 314.8999938964844 L 1150.800048828125 307.29998779296875 L 1159 311.3999938964844 L 1143.199951171875 319.1000061035156 Z" id="XMLID_110_" class="st5" style="fill: rgb(241, 242, 242);" transform="matrix(0.9999999999999999, 0, 0, 0.9999999999999999, -2.842170943040401e-14, 0)"/><path d="M 1307.5 396.5 L 1305.5999755859375 378.8999938964844 L 1311 382.20001220703125 L 1312.199951171875 399.8999938964844 Z" id="XMLID_129_" class="st5" style="fill: rgb(241, 242, 242);" transform="matrix(0.9999999999999999, 0, 0, 0.9999999999999999, -2.842170943040401e-14, 0)"/>
</svg>